<?xml version="1.0" encoding="UTF-8" standalone="no"?>
<svg
   width="150mm"
   height="200mm"
   viewBox="0 0 150 200"
   version="1.1"
   id="svg862"
   sodipodi:docname="images_bunched_inkscape.svg"
   inkscape:version="1.1.2 (0a00cf5339, 2022-02-04)"
   xmlns:inkscape="http://www.inkscape.org/namespaces/inkscape"
   xmlns:sodipodi="http://sodipodi.sourceforge.net/DTD/sodipodi-0.dtd"
   xmlns="http://www.w3.org/2000/svg"
   xmlns:svg="http://www.w3.org/2000/svg">
  <defs
     id="defs866" />
  <sodipodi:namedview
     id="namedview864"
     pagecolor="#ffffff"
     bordercolor="#666666"
     borderopacity="1.0"
     inkscape:pageshadow="2"
     inkscape:pageopacity="0.0"
     inkscape:pagecheckerboard="0"
     inkscape:document-units="px"
     showgrid="false"
     inkscape:zoom="1.4693194"
     inkscape:cx="283.12427"
     inkscape:cy="283.46457"
     inkscape:window-width="1920"
     inkscape:window-height="1016"
     inkscape:window-x="0"
     inkscape:window-y="0"
     inkscape:window-maximized="1"
     inkscape:current-layer="g1713" />
  <g
     id="g1077">
    <g
       id="g1431"
       style="font-variation-settings:normal;opacity:1;vector-effect:none;fill:#000000;fill-opacity:1;stroke-width:0.716678;stroke-linecap:butt;stroke-linejoin:miter;stroke-miterlimit:4;stroke-dasharray:none;stroke-dashoffset:0;stroke-opacity:1;-inkscape-stroke:none;stop-color:#000000;stop-opacity:1">
      <g
         id="g1713">
        <path
           d="m 0,17.939 v 0.53 h 122.19856 v -0.53 z M 0,0 V 0.53 H 122.19856 V 0 Z m 0,35.878 v 0.53 h 122.19856 v -0.53 z m 0,17.94 v 0.529 h 122.19856 v -0.53 z m 0,17.938996 v 0.53 h 122.19856 v -0.53 z"
           style="color:#000000;font-variation-settings:normal;vector-effect:none;fill:#000000;fill-opacity:1;stroke-width:0.45025;stroke-linecap:butt;stroke-linejoin:miter;stroke-miterlimit:4;stroke-dasharray:none;stroke-dashoffset:0;stroke-opacity:1;-inkscape-stroke:none;stop-color:#000000"
           id="staff" />
        <path
           id="gkey"
           style="font-variation-settings:normal;vector-effect:none;fill:#000000;fill-opacity:1;fill-rule:nonzero;stroke:#000000;stroke-width:0.716677;stroke-linecap:butt;stroke-linejoin:miter;stroke-miterlimit:4;stroke-dasharray:none;stroke-dashoffset:0;stroke-opacity:1;-inkscape-stroke:none;stop-color:#000000"
           d="M 27.891251,0.35892379 C 25.13506,0.31473379 22.141918,2.7451158 19.628707,8.6457578 17.058646,14.678998 16.101843,20.736468 18.562622,32.345088 l 1.078486,5.08599 c -8.024526,7.2522 -18.1324533,16.56597 -19.20657729,29.77958 -1.355003,16.74708 15.64296329,29.237556 30.89165229,25.337466 l 2.155425,10.166816 c 1.066464,5.03838 0.352348,11.96999 -4.350639,15.15618 -2.310286,1.56636 -10.435738,2.64624 -12.533601,-1.01544 a 7.0346344,7.1552868 1.072 0 0 0.922422,0.0832 7.0346344,7.1552868 1.072 0 0 7.167523,-7.02231 7.0346344,7.1552868 1.072 0 0 -6.899838,-7.28586 7.0346344,7.1552868 1.072 0 0 -7.167004,7.02231 7.0346344,7.1552868 1.072 0 0 0.08423,1.22111 c 0.489974,4.20859 4.528146,10.34955 11.678875,10.58075 10.001385,0.32409 16.392768,-7.32951 13.415716,-19.81429 l -2.133203,-9.845906 c 9.663375,-3.987276 14.436723,-18.907456 8.253243,-26.730146 -4.839713,-6.12052 -10.515345,-7.79753 -15.534452,-6.87194 l -2.690275,-12.41733 c 5.533618,-6.59013 10.19583,-13.70624 11.9972,-22.57795 C 38.185736,10.913778 33.53488,0.44940279 27.891249,0.35892379 Z m 2.27118,8.59534401 c 0.70508,0.0104 1.271014,0.25811 1.60817,0.75395 0.879927,1.2906902 3.005756,7.3370802 -3.046326,18.1637602 -1.320673,2.3635 -4.010736,4.94548 -7.20731,7.85429 l -0.648023,-2.99103 c -1.778696,-8.20197 -0.444765,-12.65083 0.504878,-15.30191 1.978419,-5.52603 6.270466,-8.5161202 8.788611,-8.4790602 z m -8.30027,38.9542102 2.30477,10.87014 c -11.196759,3.90481 -17.5657303,20.56591 0.0181,26.56736 -2.852695,-2.24221 -4.797274,-3.98102 -5.160925,-6.10453 -1.323054,-7.76569 2.235065,-11.84529 6.751526,-12.87363 l 4.981091,23.494166 c -5.609937,1.77873 -12.883385,0.69675 -17.826302,-3.792536 -6.6380733,-6.02947 -9.5847533,-17.64339 -2.196764,-25.9829 3.639473,-4.10761 7.514963,-8.06433 11.128518,-12.17807 z m 6.237346,18.19682 c 7.072685,-0.0407 14.824723,6.51186 10.117211,17.53381 -0.989369,2.31755 -2.845493,4.09468 -5.17281,5.284946 z" />
        <path
           d="m 9.53305,24.75814 c 0,1.70286 -0.63968,3.33464 -2.38993,5.52319 -1.85686,2.31886 -3.41757,3.64561 -5.47582,5.20632 V 25.32378 q 0.70188,-1.77098 2.07305,-2.87265 1.36822,-1.09576 2.77197,-1.09872 2.31589,0 2.94965,2.62389 a 2.9615,2.9615 0 0 1 0.0711,0.78184 m -0.22211,-7.1076 q -1.91313,0 -3.89438,1.06021 A 15.9921,15.9921 0 0 0 1.66732,21.53602 V 0 H 0 v 36.88548 q 0,1.56367 0.85291,1.56367 c 0.32873,0 0.73742,-0.27542 1.34748,-0.63968 1.72656,-1.03061 2.80455,-1.71767 3.97434,-2.4462 a 26.6535,26.6535 0 0 0 4.82428,-3.69299 q 2.05528,-2.06713 2.97927,-4.16387 0.91807,-2.09971 0.92103,-4.16387 0,-3.05627 -1.62587,-4.34156 A 6.57453,6.57453 0 0 0 9.31096,17.65054"
           style="font-variation-settings:normal;vector-effect:none;fill:#000000;fill-opacity:1;stroke-width:0.716678;stroke-linecap:butt;stroke-linejoin:miter;stroke-miterlimit:4;stroke-dasharray:none;stroke-dashoffset:0;stroke-opacity:1;-inkscape-stroke:none;stop-color:#000000"
           id="flat" />
        <path
           d="M 5.43292,34.63273 V 21.2243 l 5.70086,-1.57343 v 13.34001 z m 11.225,-3.24379 -3.91934,1.12307 V 19.17199 l 3.91934,-1.09456 v -5.54124 l -3.91934,1.09457 V 0 h -1.6048 v 14.04407 l -5.70086,1.639 V 2.42857 H 3.91935 V 16.18759 L 0,17.28501 v 5.55264 L 3.91935,21.74308 V 35.05744 L 0,36.14916 v 5.52983 L 3.91935,40.58442 V 54.138216 H 5.43292 V 40.09985 l 5.70086,-1.56774 v 13.186086 h 1.6048 V 38.03614 l 3.91934,-1.09742 z"
           style="font-variation-settings:normal;vector-effect:none;fill:#000000;fill-opacity:1;stroke-width:0.716678;stroke-linecap:butt;stroke-linejoin:miter;stroke-miterlimit:4;stroke-dasharray:none;stroke-dashoffset:0;stroke-opacity:1;-inkscape-stroke:none;stop-color:#000000"
           id="sharp" />
        <path
           d="M 10.61073,42.38705 9.03897,42.94836 V 30.09196 L 0,34.02198 V 0.6739 L 1.51588,0 V 13.08117 L 10.61073,8.92638 Z M 9.03897,24.4217 v -8.98268 l -7.52309,3.31241 v 8.98268 z"
           style="font-style:normal;font-variant:normal;font-weight:400;font-stretch:normal;font-size:144px;line-height:100%;font-variation-settings:normal;text-align:start;writing-mode:lr-tb;text-anchor:start;vector-effect:none;fill:#000000;fill-opacity:1;stroke-width:0.716678;stroke-linecap:butt;stroke-linejoin:miter;stroke-miterlimit:4;stroke-dasharray:none;stroke-dashoffset:0;stroke-opacity:1;-inkscape-stroke:none;stop-color:#000000"
           id="natural" />
        <path
           d="m 54.639443,9.959176 c 0.0253,1.17019 -0.4744,2.33723 -1.36312,3.09944 -1.13857,1.04053 -2.87806,1.25243 -4.29811,0.72426 a 4.016629,4.016629 0 0 1 -2.527,-3.44734 c -0.10437,-1.18285 0.27199,-2.42263 1.12592,-3.26391 a 4.048256,4.048256 0 0 1 3.17535,-1.21131 3.9976528,3.9976528 0 0 1 3.88696,4.09886 m 0,18.47965 c 0.0253,1.1702 -0.4744,2.3404 -1.36312,3.09945 -1.13857,1.04369 -2.87806,1.25559 -4.29811,0.72742 a 4.016629,4.016629 0 0 1 -2.527,-3.45051 4.174764,4.174764 0 0 1 1.12592,-3.26074 c 0.79068,-0.87923 2.00515,-1.28089 3.16587,-1.21131 1.53074,0.0411 2.92233,1.0848 3.55487,2.45109 0.23404,0.51235 0.34157,1.08164 0.34157,1.6446 m -13.53952,-5.62012 c 0.14232,8.93463 -3.84268,17.61624 -10.164908,23.83411 -7.87513,7.87196 -18.17604,12.87535 -28.6762046,16.22149 -1.39791397,0.75588 -3.504272,-0.24353 -1.30619597,-1.27141 4.23169297,-1.92292 8.62785097,-3.57385 12.52429057,-6.16726 8.61203,-5.32599 15.87676,-13.70714 17.64154,-23.91634 a 46.17542,46.17542 0 0 0 -0.81597,-18.78644 c -1.14174,-4.49103 -4.25384,-9.12122 -9.175,-9.78223 a 14.580047,14.580047 0 0 0 -12.4072696,4.0957 c -0.84128,0.85076 -2.47323,3.20381 -2.2044,5.9016 1.90394,-1.4928 1.77427,-1.32834 3.33665,-2.02413 3.5959896,-1.60349 8.3621796,0.67682 9.2603796,4.63652 0.95514,3.6371 0.21823,8.26413 -3.3746,10.20603 -3.7478,2.03678 -9.2793596,1.19234 -11.3730666,-2.81797 -3.46315697,-6.18307 -1.559211,-14.63381 4.041927,-18.92243 5.7023496,-4.73456004 14.0234196,-4.91800004 20.7409896,-2.48904 6.907338,2.56811 11.025168,9.72846 11.692498,16.81923 q 0.26567,2.22338 0.25934,4.46257"
           style="font-variation-settings:normal;vector-effect:none;fill:#000000;fill-opacity:1;stroke-width:0.716678;stroke-linecap:butt;stroke-linejoin:miter;stroke-miterlimit:4;stroke-dasharray:none;stroke-dashoffset:0;stroke-opacity:1;-inkscape-stroke:none;stop-color:#000000"
           id="fkey" />
        <path
           style="color:#000000;font-variation-settings:normal;vector-effect:none;fill:#000000;fill-opacity:1;stroke-width:0.716678;stroke-linecap:butt;stroke-linejoin:miter;stroke-miterlimit:4;stroke-dasharray:none;stroke-dashoffset:0;stroke-opacity:1;-inkscape-stroke:none;stop-color:#000000"
           d="M 1.4311033,71.667681 V 15.355685 l 0.107,0.16 c 2.87,2.871 8.9759997,2.79 13.8979997,-0.558 4.922,-3.349 6.975,-8.6419997 4.69,-12.0849997 -2.287,-3.442 -8.122,-3.845 -13.3219997,-0.916 -4.454,2.507 -7.131,6.708 -6.772,10.2499997 v 59.461996 z"
           id="blackdown" />
        <path
           style="color:#000000;font-variation-settings:normal;vector-effect:none;fill:#000000;fill-opacity:1;stroke-width:0.716678;stroke-linecap:butt;stroke-linejoin:miter;stroke-miterlimit:4;stroke-dasharray:none;stroke-dashoffset:0;stroke-opacity:1;-inkscape-stroke:none;stop-color:#000000"
           d="m 19.626512,0 v 56.313 l -0.107,-0.16 c -2.87,-2.871 -8.976,-2.79 -13.8980003,0.558 -4.92200003,3.349 -6.975,8.642 -4.69000003,12.085 2.28700003,3.442 8.12200003,3.845 13.32200033,0.916 4.454,-2.507 7.131,-6.708 6.772,-10.25 V 0 Z"
           id="blackup" />
        <path
           style="color:#000000;font-variation-settings:normal;vector-effect:none;fill:#000000;fill-opacity:1;stroke-width:0.264203;stroke-linecap:butt;stroke-linejoin:miter;stroke-miterlimit:4;stroke-dasharray:none;stroke-dashoffset:0;stroke-opacity:1;-inkscape-stroke:none;stop-color:#000000"
           d="M 0,0 V 0.79375 H 28.094889 V 0 Z"
           id="ledger0" />
        <path
           style="color:#000000;font-variation-settings:normal;vector-effect:none;fill:#000000;fill-opacity:1;stroke-width:0.264203;stroke-linecap:butt;stroke-linejoin:miter;stroke-miterlimit:4;stroke-dasharray:none;stroke-dashoffset:0;stroke-opacity:1;-inkscape-stroke:none;stop-color:#000000"
           d="M 0,0 V 0.79375 H 28.094889 V 0 Z"
           id="ledger1" />
        <path
           style="color:#000000;font-variation-settings:normal;vector-effect:none;fill:#000000;fill-opacity:1;stroke-width:0.264203;stroke-linecap:butt;stroke-linejoin:miter;stroke-miterlimit:4;stroke-dasharray:none;stroke-dashoffset:0;stroke-opacity:1;-inkscape-stroke:none;stop-color:#000000"
           d="M 0,0 V 0.79375 H 28.094889 V 0 Z"
           id="ledger2" />
        <path
           style="color:#000000;font-variation-settings:normal;vector-effect:none;fill:#000000;fill-opacity:1;stroke-width:0.264203;stroke-linecap:butt;stroke-linejoin:miter;stroke-miterlimit:4;stroke-dasharray:none;stroke-dashoffset:0;stroke-opacity:1;-inkscape-stroke:none;stop-color:#000000"
           d="M 0,0 V 0.79375 H 28.094889 V 0 Z"
           id="ledger3" />
        <path
           style="color:#000000;font-variation-settings:normal;vector-effect:none;fill:#000000;fill-opacity:1;stroke-width:0.264203;stroke-linecap:butt;stroke-linejoin:miter;stroke-miterlimit:4;stroke-dasharray:none;stroke-dashoffset:0;stroke-opacity:1;-inkscape-stroke:none;stop-color:#000000"
           d="M 0,0 V 0.79375 H 28.094889 V 0 Z"
           id="ledger4" />
        <path
           style="color:#000000;font-variation-settings:normal;vector-effect:none;fill:#000000;fill-opacity:1;stroke-width:0.264203;stroke-linecap:butt;stroke-linejoin:miter;stroke-miterlimit:4;stroke-dasharray:none;stroke-dashoffset:0;stroke-opacity:1;-inkscape-stroke:none;stop-color:#000000"
           d="M 0,0 V 0.79375 H 28.094889 V 0 Z"
           id="ledger5" />
      </g>
    </g>
  </g>
</svg>
